PathFileType	4	(X/Y/Z)	C:/Users/beibeiliu/ov580/test_trc/User1\sequence.5_training_dense_right.trc
DataRate	CameraRate	NumFrames	NumMarkers	Units	OrigDataRate	OrigDataStartFrame	OrigNumFrames
120	120	20	19	mm	120	202	269
Frame#	Time	ThumbCMC			ThumbMCP			ThumbIP			ThumbTip			IndexMCP			IndexPIP			IndexTip			MiddleMCP			MiddlePIP			MiddleTip			RingMCP			RingPIP			RingTip			PinkyMCP			PinkyPIP			PinkyTip			BackHand1			BackHand2			BackHand3	
		X0	Y0	Z0	X1	Y1	Z1	X2	Y2	Z2	X3	Y3	Z3	X4	Y4	Z4	X5	Y5	Z5	X6	Y6	Z6	X7	Y7	Z7	X8	Y8	Z8	X9	Y9	Z9	X10	Y10	Z10	X11	Y11	Z11	X12	Y12	Z12	X13	Y13	Z13	X14	Y14	Z14	X15	Y15	Z15	X16	Y16	Z16	X17	Y17	Z17	X18	Y18	Z18	
201	1.675	157.604	100.658	12.9694	126.41	110.419	-13.909	110.478	108.478	-33.5624	88.6433	99.1401	-51.1036	161.085	76.1133	-67.0248	153.836	73.1844	-94.0827	147.239	71.0977	-117.249	125.654	59.0703	-64.0469	97.3205	79.8919	-58.9515	99.0457	83.2085	-16.1519	113.622	40.9117	-49.8351	84.4561	59.2159	-46.3947	81.8761	79.4729	-18.3011	107.738	27.4686	-30.8938	84.9592	48.0563	-31.8158	87.7628	73.25	-9.42555	155.768	28.6232	-6.08475	168.434	34.6306	27.548	178.103	65.8219	5.04477	
202	1.68333	161.276	98.4745	9.94501	131.958	110.481	-12.0171	114.694	109.926	-37.2721	95.5671	97.8849	-51.6911	167.036	75.3463	-70.3283	159.556	72.9643	-93.6475	153.822	68.3496	-117.8	134.371	61.1961	-64.0275	101.787	79.2793	-60.4534	104.679	88.6316	-24.008	116.675	46.0727	-52.3551	89.1117	66.9481	-44.8983	90.4958	81.4041	-17.7414	108.707	29.889	-33.5031	90.424	52.1169	-37.1288	82.273	76.4431	-18.3856	159.462	28.8112	-3.00711	165.257	31.7739	29.1446	180.454	61.541	4.99451	
203	1.69167	166.757	100.071	7.64093	137.377	112.962	-13.9991	119.614	108.097	-37.9733	98.5511	99.7358	-54.2475	171.624	72.1497	-70.2401	168.122	72.1254	-92.7142	163.923	68.1156	-120.219	135.822	58.5457	-68.1949	109.353	78.7296	-64.1547	110.069	86.5723	-24.9045	117.833	44.0999	-51.1344	94.8122	71.0728	-43.1965	101.207	81.3309	-12.2741	110.665	33.2795	-36.4804	93.5679	53.2527	-39.9639	82.8188	76.4228	-33.3803	160.595	28.2721	-4.01504	166.753	29.3627	33.9814	185.298	58.4956	3.605	
204	1.7	169.847	95.5989	11.9304	142.433	106.741	-14.9035	126.307	107.566	-39.6448	105.765	100.109	-54.2885	177.806	63.182	-68.7971	176.279	65.1982	-93.0107	171.821	57.6486	-119.051	141.563	52.3248	-66.9167	114.333	72.9384	-65.8637	115.3	88.1875	-29.2442	121.713	44.505	-53.1642	98.4771	68.1977	-42.5009	108.106	82.6962	-14.5038	114.002	29.5582	-33.6254	93.5823	47.1533	-40.4634	85.8995	72.6924	-42.9988	160.463	26.483	-1.23308	167.461	28.5717	32.487	186.478	55.3154	7.29872	
205	1.70833	172.696	91.9757	10.7394	148.69	107.991	-15.2173	132.909	104.23	-40.1165	113.93	93.8701	-57.1185	183.071	57.3528	-66.4576	182.985	56.441	-91.6817	180.94	50.9352	-110.944	148.741	45.3049	-63.017	121.148	66.8156	-67.7158	118.504	82.7456	-28.1969	124.976	36.6655	-52.209	105.964	62.4437	-48.9426	109.961	79.4882	-20.7508	120.067	25.6162	-31.1253	100.606	42.4822	-41.9195	89.8563	69.6989	-46.5984	163.126	19.4248	0.874577	171.352	28.7119	36.6742	189.126	49.8111	9.45881	
206	1.71667	175.99	88.6745	10.4703	151.08	100.897	-18.7198	136.569	98.4128	-45.1193	118.815	89.5736	-61.0288	187.779	50.2735	-63.1127	187.797	49.3825	-86.0978	187.976	40.2854	-109.86	154.83	39.1439	-61.5655	124.825	59.5936	-68.4322	120.588	79.1956	-32.421	132.891	28.8023	-48.4286	107.615	56.9721	-48.4874	108.441	75.5788	-20.2493	123.698	21.0386	-30.5243	106.311	41.4529	-42.1373	95.1759	65.0068	-42.8525	168.51	20.0098	3.23397	170.009	24.4428	37.1604	189.284	47.3072	11.7089	
207	1.725	177.164	86.6503	14.0002	154.61	94.0751	-18.2334	142.27	93.9556	-45.9798	124.208	84.9748	-62.0881	194.067	46.0646	-60.0892	193.521	39.3857	-82.768	193.658	32.6603	-104.755	155.928	36.525	-62.7259	129.681	54.2773	-67.5261	123.837	75.6826	-31.8147	137.91	23.6912	-45.6851	111.022	50.9154	-50.4799	106.256	70.55	-30.0081	128.642	16.4749	-27.874	106.055	36.3067	-38.6598	101.794	64.1329	-33.5057	171.311	15.8632	7.48821	171.997	22.1101	44.9963	193.436	45.2737	17.6748	
208	1.73333	179.895	83.5207	13.3573	158.879	93.2837	-17.4714	147.39	85.8692	-45.727	129.938	75.1218	-65.8174	199.363	40.5862	-54.4493	200.238	35.3517	-76.5146	202.302	22.8997	-105.147	161.492	31.9578	-60.0304	132.631	48.6276	-65.6544	124.633	68.1313	-31.9114	143.318	20.6454	-45.51	119.944	41.6137	-53.4936	106.177	65.6416	-34.069	128.133	12.9107	-29.0933	110.208	29.9873	-36.1506	110.592	60.8462	-27.4932	172.527	14.427	10.388	174.723	20.817	43.9847	194.294	40.6184	16.5065	
209	1.74167	182.828	82.0482	14.2899	162.626	86.5731	-19.6601	152.055	80.113	-44.0588	134.47	67.404	-64.9482	202.836	34.0552	-48.9399	204.558	24.5207	-74.7233	205.927	13.8635	-96.2315	165.29	23.2871	-54.2457	136.319	43.2334	-63.2701	131.519	65.0923	-30.9437	145.942	15.3826	-43.7791	117.909	39.7328	-50.7813	107.647	63.5069	-31.4079	130.839	7.71734	-25.982	115.661	32.2131	-34.2626	118.477	59.0523	-23.6312	171.308	7.04684	13.0753	171.606	18.6502	47.917	193.805	36.6793	20.8151	
210	1.75	183.106	74.0626	16.9583	166.124	78.0607	-20.0404	155.315	70.8362	-45.7559	139.529	63.1909	-61.7292	207.051	26.0768	-49.0481	208.478	16.437	-69.0909	214.612	5.04757	-95.5502	165.51	17.8686	-55.5899	142.472	41.6447	-62.6477	135.157	58.1626	-29.5178	148.801	8.44667	-39.9192	125.029	34.6097	-50.6154	114.775	58.7191	-33.7018	133.176	0.767521	-20.0449	119.474	26.242	-31.9989	125.997	53.7057	-19.7715	174.853	7.17309	16.805	174.898	18.0958	52.925	197.617	35.1886	24.9306	
211	1.75833	186.271	73.9057	13.9348	169.202	80.5383	-19.9787	159.386	69.9648	-48.0617	141.219	55.1811	-65.7466	210.125	19.5931	-47.7611	214.09	10.0019	-67.51	218.858	-3.51822	-91.7409	172.654	13.0369	-51.3298	145.673	32.9272	-60.5794	138.951	52.5891	-27.3536	150.352	7.01537	-40.7372	124.541	28.1841	-48.1259	115.634	51.9838	-28.4295	133.304	-2.23975	-20.7587	122.995	19.3362	-31.202	128.852	50.4574	-15.0307	177.165	2.23133	17.5672	171.725	15.5888	54.0455	198.523	29.8106	25.5557	
212	1.76667	187.627	70.152	13.1326	169.527	72.0448	-17.9043	161.467	65.1784	-47.8745	143.714	47.0395	-65.1423	213.535	15.3305	-43.6212	216.194	5.91893	-63.0755	222.351	-9.41746	-87.0833	172.983	7.76365	-51.8512	150.022	28.7467	-59.9248	141.551	46.3662	-25.326	148.788	0.128202	-38.7877	128.823	26.2634	-46.5904	119.806	48.9948	-25.8403	134.578	-5.52876	-20.2387	123.983	19.8736	-28.9674	131.695	45.3052	-10.8568	178.464	-1.03171	22.1327	175.144	14.6009	52.547	200.199	29.757	27.7467	
213	1.775	187.182	67.0729	16.6734	172.51	68.5065	-22.0268	162.792	58.1338	-47.6168	146.43	38.6923	-63.6866	214.633	13.2479	-37.8174	219.673	1.22709	-60.2497	225.759	-14.7676	-84.3309	178.041	3.36799	-46.2421	150.285	24.6153	-57.8252	145.067	41.0057	-18.9582	155.397	-0.820798	-37.7101	132.303	20.4929	-44.7388	124.763	48.1482	-23.2454	139.347	-9.45689	-17.5932	125.132	15.8145	-26.5109	136.125	39.9938	-11.2974	178.413	-3.0993	27.3595	173.698	12.6576	58.9912	200.893	29.9081	33.4163	
214	1.78333	187.967	67.0902	18.2379	172.525	66.0791	-16.3532	165.137	55.6786	-47.3392	148.51	40.1529	-63.0311	217.258	9.29458	-36.8196	220.851	-4.13357	-57.4687	227.102	-17.8342	-80.5284	180.809	2.1157	-45.6176	152.637	18.2184	-56.1187	148.917	40.7498	-21.4074	157.847	-3.8931	-36.1703	133.507	19.7825	-43.9404	125.55	42.1303	-23.1278	139.276	-12.7893	-16.674	129.777	15.0699	-25.7628	138.968	37.6077	-7.19247	178.335	-8.19501	26.0844	173.987	7.16398	59.433	198.619	26.0866	34.9812	
215	1.79167	188.484	64.1943	18.0689	174.521	62.6632	-19.1988	167.232	53.5735	-43.7768	151.958	36.3855	-63.0921	219.783	5.31661	-35.0554	227.166	-6.11233	-56.0969	230.962	-20.1492	-76.9571	184.356	1.33154	-45.808	157.414	17.3543	-55.6482	151.089	36.1204	-18.4291	158.739	-8.3679	-32.796	137.962	19.0697	-42.5693	131.113	39.2732	-22.8142	144.749	-14.3831	-17.2526	130.2	9.97137	-25.2247	138.677	35.2119	-7.45629	181.58	-6.10226	29.1366	175.925	9.26391	60.2846	204.163	26.3	34.5633	
216	1.8	188.737	67.2731	18.7468	173.914	63.0476	-16.5334	168.712	50.1788	-43.8049	156.166	32.7766	-63.0609	226.462	12.1648	-31.8688	233.162	-0.610541	-53.193	238.985	-16.5382	-74.2041	193.156	1.40518	-40.6262	161.425	18.1102	-52.2996	157.282	37.8488	-20.849	167.782	-6.83994	-34.1137	143.735	13.3551	-41.3306	136.328	38.224	-17.0437	152.009	-15.7315	-15.7109	139.823	10.1463	-23.4901	142.668	32.1993	0.356625	189.182	-5.8836	28.1002	179.222	6.56991	60.1611	202.227	28.7543	38.7037	
217	1.80833	184.78	69.9254	21.4942	172.671	68.0144	-16.1529	171.254	54.7386	-45.7582	161.548	34.5741	-59.8287	236.481	27.6877	-30.1506	246.417	17.3363	-53.0691	254.202	2.75049	-75.5087	201.151	6.8327	-43.716	170.61	18.4677	-53.1379	161.733	34.7724	-16.6628	179.322	-3.84564	-34.2849	150.194	12.8199	-38.7524	141.799	34.1305	-15.2819	165.915	-16.6181	-16.7009	147.301	5.00647	-23.9628	149.14	29.519	-3.39059	196.08	-1.08044	29.3353	187.614	8.6269	59.4106	207.489	35.0422	37.6705	
218	1.81667	180.456	71.9622	22.1521	169.344	67.2747	-17.2598	169.54	55.8508	-46.3654	163.496	34.3928	-63.6259	237.628	39.6348	-30.213	249.88	31.5537	-53.9251	260.582	16.7517	-76.3443	209.044	16.0605	-43.4826	174.035	20.3061	-53.4578	162.876	34.4931	-17.0136	186.282	-0.33608	-34.595	156.733	9.44567	-39.47	145.357	28.5779	-13.1207	179.19	-13.6124	-17.6708	153.373	0.198384	-25.2386	154.612	26.7884	0.0226873	205.81	5.34618	30.9677	193.477	15.7422	60.8635	209.077	39.8613	37.9321	
219	1.825	173.634	72.3016	22.0302	162.833	69.8108	-18.1815	166.491	56.2917	-46.3905	163.166	33.7415	-63.058	234.359	46.3371	-30.3437	249.258	39.8431	-55.4976	260.069	31.4307	-75.3739	210.589	20.4571	-45.4962	177.874	21.2704	-55.0019	162.394	33.9815	-20.7408	190.561	0.265838	-34.4003	160.393	11.4402	-38.5374	147.272	27.5353	-11.3584	184.226	-10.9608	-20.5145	160.97	1.10013	-25.0929	154.534	22.5838	-0.664946	209.164	10.3168	28.0137	195.284	20.1577	58.672	205.073	49.7066	37.8818	
220	1.83333	167.307	76.0357	20.6016	159.103	66.1791	-18.6098	159.825	56.0017	-46.2693	164.271	31.3994	-63.9841	232.267	61.3791	-34.8535	246.433	56.2967	-58.5463	258.426	49.5755	-79.9893	210.851	26.1617	-47.0415	175.344	25.9784	-55.2962	162.593	30.3511	-19.9817	198.833	7.08984	-33.2861	162.706	8.79422	-38.1011	149.273	23.797	-11.3248	190.955	-7.16712	-19.8515	160.816	0.317877	-22.2057	157.466	22.4017	-0.738491	213.392	16.0888	26.1336	196.095	25.1314	58.8835	205.764	54.5511	31.8582	
